<?xml version="1.0" encoding="utf-8"?>
<!-- Generator: Adobe Illustrator 27.4.1, SVG Export Plug-In . SVG Version: 6.00 Build 0)  -->
<svg version="1.1" id="Layer_2_00000107563684082888153860000008818182014592106934_"
	 xmlns="http://www.w3.org/2000/svg" xmlns:xlink="http://www.w3.org/1999/xlink" x="0px" y="0px" viewBox="0 0 89.6 140.5"
	 style="enable-background:new 0 0 89.6 140.5;" xml:space="preserve">
<style type="text/css">
	.st0{fill:#333333;}
</style>
<path class="st0" d="M10.7,3.7l-7,7c-4.9,4.9-4.9,13,0,18l41.5,41.5L3.7,111.8c-4.9,4.9-4.9,13,0,18l7,7c2.4,2.4,5.6,3.7,9,3.7
	s6.6-1.3,9-3.7l57.2-57.2c2.5-2.5,3.7-5.7,3.7-9c0-0.1,0-0.3,0-0.4c0-0.1,0-0.3,0-0.4c0-3.2-1.2-6.5-3.7-9L28.7,3.7
	c-2.4-2.4-5.6-3.7-9-3.7S13.1,1.3,10.7,3.7L10.7,3.7z"/>
</svg>
