<?xml version="1.0" encoding="UTF-8"?>
<svg id="Layer_2" data-name="Layer 2" xmlns="http://www.w3.org/2000/svg" viewBox="0 0 319.84 270.58">
  <defs>
    <style>
      .cls-1 {
        fill: #e5e5e2;
      }

      .cls-2 {
        fill: #a9a8a4;
      }

      .cls-3 {
        fill: #db4b32;
      }

      .cls-4 {
        fill: #632553;
      }

      .cls-5 {
        opacity: .8;
      }

      .cls-6 {
        fill: #822857;
        opacity: .6;
      }
    </style>
  </defs>
  <g id="Layer_1-2" data-name="Layer 1">
    <g>
      <path class="cls-1" d="m170.58,0l-44,44.92v-26.56h-17.22v44.16l-41.84,42.76.05,156.99,207.36-.05-.05-156.99L170.58,0Zm-62.03,117.15h21.33v41.08h-21.33v-41.08Zm21.65,102.63h-21.32v-41.08h21.32v41.08Zm52.85.49h-22.35v-41.25h22.35v41.25Zm0-61.49h-22.35v-41.41h22.35v41.41Zm31.96-40.22h20.89v40.22h-20.89v-40.22Zm1.13,101.92l-.59-40.65h20.73l.59,40.65h-20.73Z"/>
      <g>
        <g>
          <path class="cls-4" d="m65.32,249.44c-.58-1.22-1.6-2.13-2.86-2.58-.04-.01-.08-.03-.12-.04l.33-3.56.11-1.17.85-6.24.17-1.15h-14.17v-.22h3.28v-2.19h-3.28v-6.84l.61-.04-.2-2.18-5.4.36.19,2.18,2.31-.15v6.67h-2.33v2.19h2.33v8.45l-2.84,3.97c-1.8-.69-3.91-.31-5.36,1.14-1.97,1.97-1.97,5.16,0,7.12.98.98,2.28,1.48,3.56,1.48s2.58-.49,3.56-1.48c1.93-1.95,1.95-5.09.06-7.06l3.46-4.85h10.91l-.3,3.33c-.53.07-1.06.22-1.56.46-1.22.58-2.13,1.59-2.58,2.86-.46,1.27-.39,2.64.19,3.84.58,1.22,1.6,2.13,2.86,2.58.55.19,1.12.3,1.68.3.74,0,1.48-.16,2.16-.49,1.22-.58,2.13-1.6,2.58-2.86.46-1.27.39-2.64-.19-3.84Zm-21.34,3.67c-.82.82-2.16.82-2.98,0-.82-.82-.82-2.16,0-2.98.4-.39.92-.6,1.43-.61l-.75,1.06,1.77,1.27.88-1.23c.43.8.31,1.83-.35,2.5Zm17.6-17.25h.89l-.23,1.59h-.66v-1.59Zm0,2.74h.49l-.31,2.18h-.18v-2.18Zm-1.54-2.74h1.05v1.59h-1.05v-1.59Zm-9.74,4.91h-.68v-2.18h.68v2.18Zm0-3.32h-.68v-1.59h.68v1.59Zm1.54,3.32h-1.05v-2.18h1.05v2.18Zm0-3.32h-1.05v-1.59h1.05v1.59Zm1.54,3.32h-1.05v-2.18h1.05v2.18Zm0-3.32h-1.05v-1.59h1.05v1.59Zm1.54,3.32h-1.05v-2.18h1.05v2.18Zm0-3.32h-1.05v-1.59h1.05v1.59Zm1.54,3.32h-1.05v-2.18h1.05v2.18Zm0-3.32h-1.05v-1.59h1.05v1.59Zm1.54,3.32h-1.05v-2.18h1.05v2.18Zm0-3.32h-1.05v-1.59h1.05v1.59Zm1.54,3.32h-1.05v-2.18h1.05v2.18Zm0-3.32h-1.05v-1.59h1.05v1.59Zm.49,3.32v-2.18h1.05v2.18h-1.05Zm2.72,11.53c-.19.54-.57.96-1.07,1.19-.52.25-1.07.28-1.61.09-.54-.18-.95-.57-1.19-1.09-.25-.51-.27-1.07-.09-1.6.19-.54.57-.95,1.07-1.19,0,0,.02,0,.02-.01l-.11,1.16,2.17.21.1-1.13c.26.2.47.45.61.76.25.52.27,1.09.09,1.61Z"/>
          <g class="cls-5">
            <path class="cls-3" d="m34.08,209.78c2.83.21,5.28-2.15,5.48-5.3.2-3.13-1.94-5.84-4.75-6.05-2.83-.21-5.28,2.15-5.48,5.28-.2,3.15,1.92,5.85,4.75,6.06"/>
            <path class="cls-3" d="m45.36,221.49l-6.85-.57-1.91-3.13.12-.61c.85-3.34-.13-5.68-1.95-6.49,0,0-3.71-.53-4.18-.55s-1.92.77-2.13,1.09c-1.2,1.07-1.98,2.61-2.38,4.19,0,0-2.84,11.76-2.75,12.69l-.1,13.86-3.12,11.32c-.39,1.43.44,2.9,1.87,3.3.21.06.41.08.63.09,1.21.04,2.33-.74,2.65-1.96l3.33-11.99.04-7.52,3.83,7.87-1.47,10.49c-.2,1.47.82,2.83,2.28,3.03.1.02.2.02.3.03,1.34.04,2.54-.93,2.73-2.3l1.7-12.11-4.78-9.8c.72-1.25,1.3-3.24,1.73-6.4l.24-1.19.44.73,9.32.78h.13c1.28.05,2.39-.93,2.5-2.24.11-1.32-.88-2.5-2.22-2.61"/>
          </g>
        </g>
        <path class="cls-4" d="m124.42,172.32c0-18.72-15.18-33.9-33.9-33.9s-33.9,15.18-33.9,33.9c0,16.44,11.7,30.15,27.24,33.24v50.87h13.05v-50.82c15.67-2.99,27.52-16.75,27.52-33.29Z"/>
        <path class="cls-6" d="m205.06,172.32c0-18.72-15.18-33.9-33.9-33.9s-33.9,15.18-33.9,33.9c0,16.44,11.7,30.15,27.24,33.24v50.87h13.05v-50.82c15.67-2.99,27.52-16.75,27.52-33.29Z"/>
        <polygon class="cls-4" points="258.18 235.24 258.18 256.44 245.13 256.44 245.13 235.12 246.38 236.46 248.39 233.97 251.2 237.98 253.57 233.97 256.24 237.98 258.18 235.24"/>
        <path class="cls-4" d="m268.69,137.83c-18.44-3.22-36.01,9.12-39.23,27.56-2.83,16.2,6.34,31.71,21.11,37.43l-5.09,29.11,1,1.53,2.41-2.1,2.08,4.44,3.02-3.54,1.94,4.41,2.39-2.36,5.1-29.19c15.95-.25,29.99-11.77,32.84-28.06,3.22-18.44-9.12-36.01-27.56-39.23Z"/>
        <rect class="cls-2" y="256.44" width="319.84" height="14.14"/>
      </g>
    </g>
  </g>
</svg>