<svg enable-background="new 0 0 1366 304" viewBox="0 0 1366 304" xmlns="http://www.w3.org/2000/svg" xmlns:xlink="http://www.w3.org/1999/xlink"><clipPath id="a"><path d="m1006.4 0h359.7v141.5h-359.7z"/></clipPath><path clip-path="url(#a)" d="m1366.1 21.6c-39.2 20-85.6 31.1-127.6 35.1-.1 0-.1 0-.2 0-19 1.8-37.1 2.3-53.2 1.7s-30.2-2.3-41.2-4.6c-50-10.8-87-30.5-114-53.8h-23.5c2.3 2.3 4.6 4.7 7.1 6.9 29.5 27.5 69.8 51.7 125.8 63.8 12.2 2.6 27.1 4.4 44 5s35.6.1 55.3-1.8c41.1-4 87.5-15.2 127.4-34.1v-18.2z" fill="#b1092a"/><path clip-path="url(#a)" d="m1255.7 95.9c-28-11.4-59.4-29.7-91.1-52.5-18.1-13.1-36.3-27.7-54.2-43.3h-27.4c23.5 21.7 45.5 39.5 69.9 57.1 32.7 23.6 65.2 42.6 95.3 54.8 38.5 15.6 78.4 25.8 118 29.6v-17.6c-36.9-3.8-74.3-13.4-110.5-28.1" fill="#c3a6b4"/><path clip-path="url(#a)" d="m1186.6 58.5c-.5 0-1.1 0-1.6 0-13.2-.5-25.1-1.7-35-3.4.9.7 1.8 1.4 2.8 2 9.1 6.5 18.1 12.7 27.1 18.5 1.1 0 2.2.1 3.3.2 9.8.4 20.2.3 31.1-.1-9-5.3-18.2-11-27.7-17.2" fill="#931627"/><path clip-path="url(#a)" d="m1217.2 28.4-10.9-3.3c-23.1-7.1-45.9-15.5-68.1-25.1h-38.2c82.8 40.9 173.9 66.5 266.1 71.2v-17.6c-50.3-2.6-100.4-11.1-148.9-25.2" fill="#81476a"/><path clip-path="url(#a)" d="m1338 51.6c-13.3-1.3-26.6-3-39.7-5.1-15.1 3.8-30.3 6.6-45.2 8.6 14.7 3.4 29.6 6.4 44.4 8.8 13.7-3.4 27.2-7.5 40.5-12.3" fill="#733355"/><path clip-path="url(#a)" d="m1110.4 0-10.2.1c7.6 3.7 15.2 7.3 22.9 10.8-4.2-3.5-8.5-7.2-12.7-10.9" fill="#793b63"/></svg>