<?xml version="1.0" encoding="utf-8"?>
<!-- Generator: Adobe Illustrator 27.4.1, SVG Export Plug-In . SVG Version: 6.00 Build 0)  -->
<svg version="1.1" id="Layer_1" xmlns="http://www.w3.org/2000/svg" xmlns:xlink="http://www.w3.org/1999/xlink" x="0px" y="0px"
	 viewBox="0 0 1366 304" style="enable-background:new 0 0 1366 304;" xml:space="preserve">
<style type="text/css">
	.st0{clip-path:url(#SVGID_00000149347102131707151220000011708677680034821558_);fill:#B1092A;}
	.st1{clip-path:url(#SVGID_00000149347102131707151220000011708677680034821558_);fill:#C3A6B4;}
	.st2{clip-path:url(#SVGID_00000149347102131707151220000011708677680034821558_);fill:#931627;}
	.st3{clip-path:url(#SVGID_00000149347102131707151220000011708677680034821558_);fill:#81476A;}
	.st4{clip-path:url(#SVGID_00000149347102131707151220000011708677680034821558_);fill:#733355;}
	.st5{clip-path:url(#SVGID_00000149347102131707151220000011708677680034821558_);fill:#793B63;}
</style>
<g>
	<defs>
		<rect id="SVGID_1_" y="86.3" width="554.6" height="218.1"/>
	</defs>
	<clipPath id="SVGID_00000081619708189565383640000010899084311482208137_">
		<use xlink:href="#SVGID_1_"  style="overflow:visible;"/>
	</clipPath>
	<path style="clip-path:url(#SVGID_00000081619708189565383640000010899084311482208137_);fill:#B1092A;" d="M0,271.1
		c60.4-30.9,131.9-47.9,196.8-54.1c0.1,0,0.2,0,0.3,0c29.3-2.8,57.2-3.6,82-2.7c24.8,0.9,46.6,3.5,63.5,7.1
		c77.2,16.8,134.3,47.1,175.8,83.1h36.2c-3.5-3.6-7.1-7.2-10.9-10.7c-45.6-42.4-107.6-79.7-194-98.4c-18.8-4.1-41.8-6.7-67.8-7.7
		c-26-0.9-55-0.2-85.3,2.8C133.1,196.6,61.6,213.9,0,243.1V271.1z"/>
	<path style="clip-path:url(#SVGID_00000081619708189565383640000010899084311482208137_);fill:#C3A6B4;" d="M170.3,156.7
		c43.2,17.5,91.6,45.7,140.5,81c27.9,20.1,56,42.7,83.5,66.8h42.2c-36.2-33.5-70.2-60.9-107.8-88c-50.4-36.4-100.5-65.7-146.9-84.6
		C122.5,107.8,61.1,92.1,0,86.3v27.2C56.9,119.2,114.4,134,170.3,156.7"/>
	<path style="clip-path:url(#SVGID_00000081619708189565383640000010899084311482208137_);fill:#931627;" d="M276.7,214.2
		c0.8,0,1.6,0,2.4,0.1c20.4,0.7,38.7,2.6,53.9,5.3c-1.4-1-2.8-2.1-4.3-3.1c-14-10.1-27.9-19.6-41.8-28.5c-1.7-0.1-3.4-0.2-5.1-0.2
		c-15.1-0.5-31.2-0.5-48,0.2C248,195.9,262.2,204.7,276.7,214.2"/>
	<path style="clip-path:url(#SVGID_00000081619708189565383640000010899084311482208137_);fill:#81476A;" d="M229.6,260.7l16.7,5
		c35.7,11,70.7,24,105,38.8h59C282.7,241.4,142.2,202,0,194.8v27C77.6,225.8,154.8,239,229.6,260.7"/>
	<path style="clip-path:url(#SVGID_00000081619708189565383640000010899084311482208137_);fill:#733355;" d="M43.3,225
		c20.5,2,40.9,4.6,61.3,7.8c23.3-5.8,46.8-10.2,69.7-13.2c-22.6-5.3-45.6-9.8-68.5-13.5C84.7,211.2,63.8,217.5,43.3,225"/>
	<path style="clip-path:url(#SVGID_00000081619708189565383640000010899084311482208137_);fill:#793B63;" d="M394.3,304.5l15.8-0.2
		c-11.6-5.8-23.4-11.2-35.3-16.6C381.3,293.2,387.9,298.8,394.3,304.5"/>
</g>
</svg>
