<?xml version="1.0" encoding="UTF-8"?>
<svg id="Layer_2" data-name="Layer 2" xmlns="http://www.w3.org/2000/svg" viewBox="0 0 147.85 257.5">
  <defs>
    <style>
      .cls-1 {
        fill: none;
        stroke: #f0ab92;
        stroke-miterlimit: 10;
        stroke-width: 3px;
      }

      .cls-2 {
        fill: #f0ab92;
      }

      .cls-3, .cls-4 {
        fill: #822857;
      }

      .cls-5 {
        fill: #908f88;
      }

      .cls-4 {
        opacity: .6;
      }

      .cls-6 {
        fill: #706f6f;
        opacity: .6;
      }
    </style>
  </defs>
  <g id="Layer_1-2" data-name="Layer 1">
    <g>
      <polygon class="cls-6" points="104.31 55.08 111.75 31.55 118.65 54.58 112.37 54.8 112.46 62.69 111.03 62.71 110.94 54.85 104.31 55.08"/>
      <polygon class="cls-3" points="117.73 31.23 124.53 11.5 130.79 30.79 125.07 30.98 125.14 37.6 123.84 37.62 123.77 31.03 117.73 31.23"/>
      <g>
        <path class="cls-2" d="m25.34,94.87c0,10.6,8.04,19.12,17.87,19.06,9.95-.12,17.93-8.82,17.99-19.42,0-10.6-8.04-19.12-17.93-19-9.89.06-17.93,8.76-17.93,19.36"/>
        <path class="cls-2" d="m83.81,104.6s-3.28-6.08-9.89-5.72c-6.55.36-6.25,7.63-6.25,7.63.35,2.32,5.78,14.59,5.84,15.9h-.06c-1.2,0-11.12-3.27-15.79-4.07-.97-.18-8.9-1.29-14.4-1.29-6.72,0-13.01-.08-16.92,2.5-.78.42-1.49.96-2.11,1.64C11.89,135.02-.74,152.53.03,178.09c.18,4.17,3.69,7.45,7.92,7.45h.24c4.35-.12,7.8-3.63,7.68-7.86-.31-10.58,2.29-19.47,6.4-27.29v16.67c-1.77,13.25-1.95,32.06-2.13,50.24-.12,11.91-.24,23.17-.83,31.21-.36,4.65,3.28,8.64,8.04,9h.65c4.53,0,8.34-3.4,8.64-7.8.65-8.28.71-19.9.89-32.23.12-10.9.23-22.71.73-33.03,1.61.19,3.27.28,4.98.28,1.32,0,2.61-.03,3.86-.09.49,10.27.6,22,.72,32.83.18,12.33.24,23.95.89,32.23.3,4.41,4.11,7.8,8.64,7.8h.65c4.77-.36,8.4-4.35,8.04-9-.6-8.04-.72-19.3-.83-31.21-.17-17.94-.35-36.47-2.06-49.7l.49-29.99c4.04.93,7.88,1.67,9.74,1.67,5.84,0,11.67-1.91,14.95-7.15,4.65-7.62,3.1-16.86-4.53-27.52Z"/>
      </g>
      <circle class="cls-1" cx="113.18" cy="34.67" r="33.17"/>
      <circle class="cls-1" cx="68.02" cy="79.5" r="5"/>
      <circle class="cls-1" cx="82.02" cy="69.5" r="5"/>
      <polygon class="cls-4" points="90.9 40.46 97.02 20.7 102.92 39.96 97.66 40.18 97.77 46.8 96.57 46.82 96.46 40.23 90.9 40.46"/>
      <polygon class="cls-4" points="110.31 29.17 117.03 7.48 123.51 28.62 117.73 28.86 117.85 36.13 116.53 36.15 116.41 28.92 110.31 29.17"/>
      <path class="cls-5" d="m131.61,41.47l-4.54.19s-.09,0-.13,0l-3.05-.36c-.79-.09-1.39-.73-1.44-1.52l-.09-1.62c-.05-.78.43-1.5,1.17-1.77l3.78-1.37c.15-.06.32-.09.48-.1l3.18-.17c.35-.02.7.12.95.37l1.02,1.06c.42.44.58,1.07.43,1.66l-.73,2.8c-.12.47-.54.8-1.02.82Z"/>
    </g>
  </g>
</svg>