<?xml version="1.0" encoding="UTF-8"?>
<svg id="Layer_2" data-name="Layer 2" xmlns="http://www.w3.org/2000/svg" viewBox="0 0 475.55 434.83">
  <defs>
    <style>
      .cls-1 {
        fill: #822757;
      }

      .cls-2, .cls-3 {
        fill: #822857;
      }

      .cls-3, .cls-4 {
        opacity: .6;
      }

      .cls-4 {
        fill: #706f6f;
      }

      .cls-5 {
        fill: #cacac5;
        opacity: .4;
      }
    </style>
  </defs>
  <g id="Layer_1-2" data-name="Layer 1">
    <g>
      <path class="cls-5" d="m442.32,219.7c-40.24,59.23-382.95,62.69-388.07,90.9-3.7,20.4,214,91,214,97-.1.11-29.78,22.89-39.84,27.23-2.55-3.41-5.62-6.29-9.08-8.48-38.91-25.83-238.33-76.73-217.86-121.97,26.03-57.53,385.58-61.92,387.13-94.52,1.4-29.71-299.93-31.21-305.16-70.77-3.27-24.75,50.85-27.88,138.6-33.3l-6.16,19.83c-47.65,1.92-83.63,4.11-83.63,7.98,0,10,192.05,16.74,268.2,43.44,27.84,9.76,56.74,20.78,41.87,42.66Z"/>
      <polygon class="cls-1" points="475.55 130.91 215.25 125.63 215.88 123.62 222.04 103.79 251.58 8.84 273.4 81.62 293.99 16.5 311.86 76.08 332.33 11.35 348.72 66.04 369.61 0 392.88 77.64 411.97 17.29 428 70.77 443.51 21.73 475.55 130.91"/>
      <polygon class="cls-2" points="118 291.22 141.91 215.6 164.1 289.59 143.91 290.31 144.18 315.68 139.59 315.73 139.31 290.47 118 291.22"/>
      <polygon class="cls-2" points="165 321.22 188.91 245.6 211.1 319.59 190.91 320.31 191.18 345.68 186.59 345.73 186.31 320.47 165 321.22"/>
      <polygon class="cls-2" points="259.46 404.23 180.43 410.96 240.38 362.24 248.73 380.63 272.08 370.69 273.89 374.92 250.63 384.81 259.46 404.23"/>
      <polygon class="cls-2" points="64.94 396.06 81.21 344.6 96.31 394.95 82.57 395.43 82.76 412.7 79.63 412.73 79.44 395.54 64.94 396.06"/>
      <polygon class="cls-3" points="214.89 299.27 232.77 247.37 249.25 298.13 234.2 298.63 234.39 316.04 230.96 316.08 230.78 298.74 214.89 299.27"/>
      <polygon class="cls-4" points="19.63 369.7 42.62 295.6 64.72 367.87 44.97 368.67 45.38 393.49 40.88 393.56 40.48 368.85 19.63 369.7"/>
    </g>
  </g>
</svg>