<?xml version="1.0" encoding="utf-8"?>
<!-- Generator: Adobe Illustrator 27.4.1, SVG Export Plug-In . SVG Version: 6.00 Build 0)  -->
<svg version="1.1" id="Layer_1" xmlns="http://www.w3.org/2000/svg" xmlns:xlink="http://www.w3.org/1999/xlink" x="0px" y="0px"
	 viewBox="0 0 1366 304" style="enable-background:new 0 0 1366 304;" xml:space="preserve">
<style type="text/css">
	.st0{clip-path:url(#SVGID_00000183244388244274209600000012233172854162507696_);fill:#B1092A;}
	.st1{clip-path:url(#SVGID_00000183244388244274209600000012233172854162507696_);fill:#C3A6B4;}
	.st2{clip-path:url(#SVGID_00000183244388244274209600000012233172854162507696_);fill:#931627;}
	.st3{clip-path:url(#SVGID_00000183244388244274209600000012233172854162507696_);fill:#81476A;}
	.st4{clip-path:url(#SVGID_00000183244388244274209600000012233172854162507696_);fill:#733355;}
	.st5{clip-path:url(#SVGID_00000183244388244274209600000012233172854162507696_);fill:#793B63;}
</style>
<g>
	<defs>
		<rect id="SVGID_1_" x="0.4" y="163" width="359.7" height="141.5"/>
	</defs>
	<clipPath id="SVGID_00000084495337415121368890000000669294557432871813_">
		<use xlink:href="#SVGID_1_"  style="overflow:visible;"/>
	</clipPath>
	<path style="clip-path:url(#SVGID_00000084495337415121368890000000669294557432871813_);fill:#B1092A;" d="M0.4,282.8
		c39.2-20,85.6-31.1,127.6-35.1c0.1,0,0.1,0,0.2,0c19-1.8,37.1-2.3,53.2-1.7c16.1,0.6,30.2,2.3,41.2,4.6
		c50.1,10.9,87.1,30.6,114.1,53.9h23.5c-2.3-2.3-4.6-4.7-7.1-6.9c-29.5-27.5-69.8-51.7-125.8-63.8c-12.2-2.6-27.1-4.4-44-5
		c-16.9-0.6-35.6-0.1-55.3,1.8c-41.1,4-87.5,15.2-127.4,34.1V282.8z"/>
	<path style="clip-path:url(#SVGID_00000084495337415121368890000000669294557432871813_);fill:#C3A6B4;" d="M110.9,208.6
		c28,11.4,59.4,29.7,91.1,52.5c18.1,13.1,36.3,27.7,54.2,43.3h27.3c-23.5-21.7-45.5-39.5-69.9-57.1c-32.7-23.6-65.2-42.6-95.3-54.8
		c-38.5-15.6-78.4-25.8-118-29.6v17.6C37.3,184.3,74.6,193.9,110.9,208.6"/>
	<path style="clip-path:url(#SVGID_00000084495337415121368890000000669294557432871813_);fill:#931627;" d="M179.9,245.9
		c0.5,0,1.1,0,1.6,0c13.2,0.5,25.1,1.7,35,3.4c-0.9-0.7-1.8-1.4-2.8-2c-9.1-6.5-18.1-12.7-27.1-18.5c-1.1,0-2.2-0.1-3.3-0.2
		c-9.8-0.4-20.2-0.3-31.1,0.1C161.3,234.1,170.5,239.8,179.9,245.9"/>
	<path style="clip-path:url(#SVGID_00000084495337415121368890000000669294557432871813_);fill:#81476A;" d="M149.3,276.1l10.9,3.3
		c23.1,7.1,45.9,15.5,68.1,25.1h38.2C183.8,263.6,92.7,238,0.4,233.3v17.5C50.8,253.5,100.9,262,149.3,276.1"/>
	<path style="clip-path:url(#SVGID_00000084495337415121368890000000669294557432871813_);fill:#733355;" d="M28.5,252.9
		c13.3,1.3,26.6,3,39.7,5.1c15.1-3.8,30.3-6.6,45.2-8.6C98.8,246,83.9,243,69,240.6C55.4,244,41.8,248.1,28.5,252.9"/>
	<path style="clip-path:url(#SVGID_00000084495337415121368890000000669294557432871813_);fill:#793B63;" d="M256.2,304.5l10.2-0.1
		c-7.6-3.7-15.2-7.3-22.9-10.8C247.7,297.1,252,300.8,256.2,304.5"/>
</g>
</svg>
