<?xml version="1.0" encoding="utf-8"?>
<!-- Generator: Adobe Illustrator 27.4.1, SVG Export Plug-In . SVG Version: 6.00 Build 0)  -->
<svg version="1.1" id="Layer_1" xmlns="http://www.w3.org/2000/svg" xmlns:xlink="http://www.w3.org/1999/xlink" x="0px" y="0px"
	 viewBox="0 0 1366 304" style="enable-background:new 0 0 1366 304;" xml:space="preserve">
<style type="text/css">
	.st0{clip-path:url(#SVGID_00000077312967990132217430000010567260691815768734_);fill:#B1092A;}
	.st1{clip-path:url(#SVGID_00000077312967990132217430000010567260691815768734_);fill:#C3A6B4;}
	.st2{clip-path:url(#SVGID_00000077312967990132217430000010567260691815768734_);fill:#931627;}
	.st3{clip-path:url(#SVGID_00000077312967990132217430000010567260691815768734_);fill:#81476A;}
	.st4{clip-path:url(#SVGID_00000077312967990132217430000010567260691815768734_);fill:#733355;}
	.st5{clip-path:url(#SVGID_00000077312967990132217430000010567260691815768734_);fill:#793B63;}
</style>
<g>
	<defs>
		<rect id="SVGID_1_" x="683" y="0.2" width="682.6" height="268.5"/>
	</defs>
	<clipPath id="SVGID_00000136397654589999334850000004599156254691535280_">
		<use xlink:href="#SVGID_1_"  style="overflow:visible;"/>
	</clipPath>
	<path style="clip-path:url(#SVGID_00000136397654589999334850000004599156254691535280_);fill:#B1092A;" d="M1365.6,41.2
		c-74.3,38-162.4,58.9-242.2,66.6c-0.1,0-0.2,0-0.3,0c-36,3.5-70.4,4.4-101,3.3c-30.6-1.1-57.4-4.3-78.1-8.8
		c-95.1-20.7-165.3-58-216.4-102.2H683c4.3,4.4,8.8,8.8,13.4,13.2c56.1,52.2,132.5,98,238.8,121.1c23.1,5,51.5,8.3,83.5,9.4
		c32,1.2,67.6,0.2,105-3.4c78.1-7.6,166-28.8,241.8-64.7V41.2z"/>
	<path style="clip-path:url(#SVGID_00000136397654589999334850000004599156254691535280_);fill:#C3A6B4;" d="M1155.9,182.1
		c-53.1-21.6-112.7-56.3-172.9-99.7c-34.4-24.8-69-52.5-102.8-82.2h-51.9c44.6,41.2,86.4,74.9,132.6,108.3
		c62.1,44.8,123.8,80.9,180.8,104.1c73.1,29.7,148.7,49,223.9,56.1v-33.4C1295.6,228.2,1224.8,210,1155.9,182.1"/>
	<path style="clip-path:url(#SVGID_00000136397654589999334850000004599156254691535280_);fill:#931627;" d="M1025,111.3
		c-1,0-2,0-3-0.1c-25.1-0.9-47.6-3.2-66.4-6.5c1.8,1.3,3.5,2.6,5.3,3.8c17.2,12.4,34.4,24.1,51.4,35.1c2.1,0.1,4.2,0.2,6.3,0.3
		c18.6,0.7,38.4,0.6,59.1-0.3C1060.4,133.8,1042.8,123,1025,111.3"/>
	<path style="clip-path:url(#SVGID_00000136397654589999334850000004599156254691535280_);fill:#81476A;" d="M1083,54.1l-20.6-6.2
		c-43.9-13.6-87.1-29.5-129.2-47.7h-72.6c157.1,77.7,329.9,126.1,505,135V102C1270,97,1175,80.7,1083,54.1"/>
	<path style="clip-path:url(#SVGID_00000136397654589999334850000004599156254691535280_);fill:#733355;" d="M1312.3,98
		c-25.2-2.4-50.4-5.6-75.4-9.6c-28.7,7.2-57.6,12.5-85.8,16.3c27.8,6.5,56.1,12.1,84.3,16.6C1261.3,114.9,1287,107.2,1312.3,98"/>
	<path style="clip-path:url(#SVGID_00000136397654589999334850000004599156254691535280_);fill:#793B63;" d="M880.3,0.2l-19.4,0.2
		c14.3,7.1,28.8,13.8,43.4,20.4C896.3,14.1,888.2,7.1,880.3,0.2"/>
</g>
</svg>
