<?xml version="1.0" encoding="UTF-8"?>
<svg id="Layer_2" data-name="Layer 2" xmlns="http://www.w3.org/2000/svg" viewBox="0 0 207.22 317.53">
  <defs>
    <style>
      .cls-1 {
        fill: #6c1f55;
      }

      .cls-2, .cls-3 {
        fill: #822857;
      }

      .cls-3, .cls-4 {
        opacity: .6;
      }

      .cls-4 {
        fill: #706f6f;
      }
    </style>
  </defs>
  <g id="Layer_1-2" data-name="Layer 1">
    <g>
      <polygon class="cls-2" points="23.04 180.92 70.68 107.23 72.71 192.67 50.96 187.53 43.83 214.68 38.91 213.4 46.01 186.36 23.04 180.92"/>
      <polygon class="cls-3" points="92.78 253.83 118.73 170 143.77 251.72 121.44 252.64 121.92 280.71 116.83 280.8 116.36 252.85 92.78 253.83"/>
      <polygon class="cls-2" points="140.78 158.83 166.73 75 191.77 156.72 169.44 157.64 169.92 185.71 164.83 185.8 164.36 157.85 140.78 158.83"/>
      <polygon class="cls-4" points="97.78 83.83 123.73 0 148.77 81.72 126.44 82.64 126.92 110.71 121.83 110.8 121.36 82.85 97.78 83.83"/>
      <polygon class="cls-3" points="75.96 94.21 95.73 30.33 114.81 92.6 97.8 93.3 98.16 114.69 94.29 114.76 93.93 93.46 75.96 94.21"/>
      <rect class="cls-1" x="184.5" y="22.73" width="2.7" height="93.32"/>
      <rect class="cls-1" x="103.87" y="88.94" width="2.7" height="90.91"/>
      <rect class="cls-1" x="85.45" y="87.8" width="40.63" height="2.28"/>
      <rect class="cls-1" x="21.48" y="156.71" width="2.7" height="93.32"/>
      <rect class="cls-1" x="2.03" y="155.58" width="40.63" height="2.28"/>
      <path class="cls-1" d="m36.44,157.31l-.18-.55c39.33-12.38,69.71-42.91,85.04-67.36l.48.3c-15.38,24.54-45.88,55.19-85.34,67.61"/>
      <path class="cls-1" d="m31.26,156.83l-.19-.53c37.84-13.67,69.22-44.22,82.34-66.82l.49.29c-13.18,22.68-44.67,53.35-82.64,67.06"/>
      <path class="cls-1" d="m24.19,156.37l-.19-.53c32.73-11.83,65.43-37.88,83.29-66.37l.49.31c-17.92,28.58-50.74,54.73-83.59,66.59"/>
      <path class="cls-1" d="m99.46,89.1c-9.32,32.64,6.77,22.01-6.68,37.53l.36.35c14.09-15.9-2.47-5.04,6.89-37.8"/>
      <path class="cls-1" d="m93.46,89.1c-8.37,41.51,7.45,28.37-5.58,47.84l.37.46c13.66-19.93-2.63-6.53,5.78-48.18"/>
      <path class="cls-1" d="m88.77,89.03c1.78,36.49-10.96,22.6-1.71,41.33l-.41.32c-9.77-19.23,3.37-5.04,1.57-41.66"/>
      <path class="cls-1" d="m11.46,156.1c-9.32,32.64,6.77,22.01-6.68,37.53l.36.35c14.09-15.9-2.47-5.04,6.89-37.8"/>
      <path class="cls-1" d="m16.46,156.1c-8.37,41.51,7.45,28.37-5.58,47.84l.37.46c13.66-19.93-2.63-6.53,5.78-48.18"/>
      <path class="cls-1" d="m5.77,156.03c1.78,36.49-10.96,22.6-1.71,41.33l-.41.32c-9.77-19.23,3.37-5.04,1.57-41.66"/>
      <rect class="cls-1" x="100.6" y="224.22" width="3.35" height="93.32"/>
      <rect class="cls-1" x="82.43" y="223.08" width="40.65" height="2.28"/>
      <path class="cls-1" d="m89.66,224.81c-39.48-12.42-69.97-43.07-85.34-67.61l.48-.3c15.33,24.45,45.72,54.99,85.04,67.36l-.18.55Z"/>
      <path class="cls-1" d="m93.83,224.34c-37.98-13.71-69.46-44.38-82.64-67.06l.49-.29c13.13,22.6,44.5,53.15,82.34,66.82l-.19.53Z"/>
      <path class="cls-1" d="m100.9,223.87c-32.85-11.86-65.66-38-83.59-66.6l.49-.3c17.86,28.5,50.56,54.55,83.29,66.37l-.19.53Z"/>
      <path class="cls-1" d="m110.34,224.34c-40.21-12.66-70.54-42.68-85.51-66.55l.49-.31c14.9,23.79,45.12,53.71,85.19,66.31l-.18.55Z"/>
      <path class="cls-1" d="m115.51,224.34c-38.28-13.82-71.58-43.91-84.69-66.48l.49-.29c13.06,22.49,46.25,52.45,84.39,66.23l-.19.53Z"/>
      <path class="cls-1" d="m122.43,224.46c-39.19-14.15-71.4-43.88-85.94-67.06l.49-.3c14.48,23.1,46.58,52.72,85.64,66.83l-.19.53Z"/>
      <rect class="cls-1" x="166.58" y="20.47" width="40.63" height="2.28"/>
      <path class="cls-1" d="m118.69,89.83l-.18-.55c39.34-12.38,69.72-42.91,85.04-67.36l.48.3c-15.38,24.54-45.87,55.18-85.34,67.61"/>
      <path class="cls-1" d="m114.52,89.36l-.19-.53c37.84-13.67,69.22-44.22,82.34-66.82l.49.29c-13.18,22.68-44.67,53.35-82.64,67.06"/>
      <path class="cls-1" d="m107.45,88.89l-.19-.53c32.74-11.83,65.43-37.88,83.3-66.37l.48.3c-17.92,28.6-50.74,54.74-83.59,66.6"/>
      <path class="cls-1" d="m100.01,88.36l-.18-.55c40.08-12.61,70.29-42.53,85.19-66.31l.49.31c-14.97,23.87-45.3,53.88-85.51,66.55"/>
      <path class="cls-1" d="m93.83,88.36l-.19-.53c38.14-13.78,71.33-43.76,84.39-66.23l.49.29c-13.11,22.57-46.41,52.66-84.69,66.48"/>
      <path class="cls-1" d="m85.92,89.48l-.19-.53c39.07-14.11,71.17-43.74,85.64-66.83l.49.3c-14.53,23.19-46.74,52.92-85.94,67.06"/>
    </g>
  </g>
</svg>