<?xml version="1.0" encoding="UTF-8"?>
<svg id="Layer_2" data-name="Layer 2" xmlns="http://www.w3.org/2000/svg" viewBox="0 0 475.55 432.83">
  <defs>
    <style>
      .cls-1, .cls-2 {
        fill: #822857;
      }

      .cls-3 {
        opacity: .4;
      }

      .cls-3, .cls-4 {
        fill: #822757;
      }

      .cls-2, .cls-5 {
        opacity: .6;
      }

      .cls-5 {
        fill: #706f6f;
      }
    </style>
  </defs>
  <g id="Layer_1-2" data-name="Layer 1">
    <g>
      <path class="cls-3" d="m442.32,217.7c-40.24,59.23-382.95,62.69-388.07,90.9-3.7,20.4,214,91,214,97-.1.11-29.78,22.89-39.84,27.23-2.55-3.41-5.62-6.29-9.08-8.48-38.91-25.83-238.33-76.73-217.86-121.97,26.03-57.53,385.58-61.92,387.13-94.52,1.4-29.71-299.93-31.21-305.16-70.77-5.37-40.64,144.02-22.98,342.98-52.9,18.83-2.83,21.07,21.71,19.5,22.82-22.94,16.15-313.67,13.59-313.67,24.59,0,10,192.05,16.74,268.2,43.44,27.84,9.76,56.74,20.78,41.87,42.66Z"/>
      <polygon class="cls-4" points="215.25 125.63 251.58 8.83 273.4 81.61 294 16.49 311.86 76.07 332.33 11.35 348.72 66.03 369.61 0 392.88 77.63 411.97 17.28 428 70.76 443.51 21.73 475.55 130.9 215.25 125.63"/>
      <polygon class="cls-1" points="118 291.22 141.91 215.6 164.1 289.59 143.91 290.3 144.18 315.68 139.59 315.73 139.31 290.47 118 291.22"/>
      <polygon class="cls-1" points="165 321.22 188.91 245.6 211.1 319.59 190.91 320.3 191.18 345.68 186.59 345.73 186.31 320.47 165 321.22"/>
      <polygon class="cls-1" points="259.46 404.23 180.43 410.95 240.38 362.23 248.73 380.62 272.08 370.69 273.89 374.92 250.63 384.81 259.46 404.23"/>
      <polygon class="cls-1" points="64.94 396.05 81.21 344.6 96.31 394.94 82.57 395.43 82.76 412.69 79.63 412.73 79.44 395.54 64.94 396.05"/>
      <polygon class="cls-2" points="214.89 299.27 232.77 247.37 249.25 298.12 234.2 298.63 234.39 316.04 230.96 316.08 230.78 298.74 214.89 299.27"/>
      <polygon class="cls-5" points="19.63 369.7 42.62 295.6 64.72 367.86 44.97 368.67 45.38 393.49 40.88 393.56 40.48 368.85 19.63 369.7"/>
    </g>
  </g>
</svg>